<svg width="21" height="17" viewBox="0 0 21 17" fill="none" xmlns="http://www.w3.org/2000/svg">
<path d="M18.2527 2.32611C17.8128 1.90569 17.2906 1.57219 16.7159 1.34465C16.1411 1.11711 15.5251 1 14.9029 1C14.2808 1 13.6647 1.11711 13.09 1.34465C12.5152 1.57219 11.993 1.90569 11.5532 2.32611L10.6404 3.19821L9.72761 2.32611C8.83921 1.4773 7.63427 1.00044 6.37787 1.00044C5.12148 1.00044 3.91654 1.4773 3.02813 2.32611C2.13973 3.17492 1.64063 4.32616 1.64062 5.52656C1.64062 6.72696 2.13973 7.87819 3.02813 8.727L3.94091 9.5991L10.6404 16L17.3399 9.5991L18.2527 8.727C18.6927 8.30679 19.0417 7.80785 19.2799 7.25871C19.518 6.70957 19.6406 6.12097 19.6406 5.52656C19.6406 4.93214 19.518 4.34355 19.2799 3.7944C19.0417 3.24526 18.6927 2.74633 18.2527 2.32611V2.32611Z" stroke="#323232" stroke-width="2" stroke-linecap="round" stroke-linejoin="round"/>
</svg>
