<svg width="35" height="35" viewBox="0 0 35 35" fill="none" xmlns="http://www.w3.org/2000/svg">
<path d="M17.4968 2.56689C13.4411 2.56689 12.9326 2.58409 11.3398 2.65676C9.75031 2.72932 8.66476 2.98172 7.71483 3.3509C6.73284 3.73253 5.90004 4.24315 5.06986 5.07334C4.23967 5.90352 3.72905 6.73631 3.34742 7.71831C2.97824 8.66818 2.72584 9.75373 2.65328 11.3432C2.58061 12.936 2.56348 13.4445 2.56348 17.5002C2.56348 21.5558 2.58061 22.0644 2.65328 23.6572C2.72584 25.2466 2.97824 26.3322 3.34742 27.282C3.72905 28.264 4.23967 29.0968 5.06986 29.9271C5.90004 30.7573 6.73284 31.2679 7.71483 31.6495C8.66476 32.0186 9.75031 32.2711 11.3398 32.3436C12.9326 32.4163 13.4411 32.4335 17.4968 32.4335C21.5524 32.4335 22.0609 32.4163 23.6537 32.3436C25.2432 32.2711 26.3288 32.0186 27.2786 31.6495C28.2606 31.2679 29.0934 30.7573 29.9237 29.9271C30.7538 29.0968 31.2645 28.264 31.6461 27.282C32.0152 26.3322 32.2677 25.2466 32.3402 23.6572C32.4128 22.0644 32.43 21.5558 32.43 17.5002C32.43 13.4445 32.4128 12.936 32.3402 11.3432C32.2677 9.75373 32.0152 8.66818 31.6461 7.71831C31.2645 6.73631 30.7538 5.90352 29.9237 5.07334C29.0934 4.24315 28.2606 3.73253 27.2786 3.3509C26.3288 2.98172 25.2432 2.72932 23.6537 2.65676C22.0609 2.58409 21.5524 2.56689 17.4968 2.56689ZM17.4968 5.25763C21.4841 5.25763 21.9564 5.27281 23.5311 5.34465C24.9871 5.4111 25.7778 5.65438 26.304 5.85883C27.001 6.12972 27.4985 6.45338 28.021 6.97592C28.5436 7.49845 28.8672 7.99597 29.1381 8.69295C29.3426 9.21916 29.5859 10.0099 29.6523 11.4658C29.7241 13.0405 29.7394 13.5128 29.7394 17.5002C29.7394 21.4875 29.7241 21.9599 29.6523 23.5345C29.5859 24.9905 29.3426 25.7812 29.1381 26.3074C28.8672 27.0044 28.5436 27.5019 28.021 28.0244C27.4985 28.547 27.001 28.8706 26.304 29.1415C25.7778 29.346 24.9871 29.5893 23.5311 29.6557C21.9567 29.7275 21.4844 29.7428 17.4968 29.7428C13.5091 29.7428 13.0369 29.7275 11.4624 29.6557C10.0064 29.5893 9.21574 29.346 8.68954 29.1415C7.99249 28.8706 7.49503 28.547 6.97244 28.0244C6.4499 27.5019 6.12625 27.0044 5.85541 26.3074C5.6509 25.7812 5.40762 24.9905 5.34117 23.5345C5.26933 21.9599 5.25415 21.4875 5.25415 17.5002C5.25415 13.5128 5.26933 13.0405 5.34117 11.4658C5.40762 10.0099 5.6509 9.21916 5.85541 8.69295C6.12625 7.99597 6.4499 7.49845 6.97244 6.97592C7.49503 6.45338 7.99249 6.12972 8.68954 5.85883C9.21574 5.65438 10.0064 5.4111 11.4624 5.34465C13.0371 5.27281 13.5094 5.25763 17.4968 5.25763Z" fill="white"/>
<path d="M17.4951 22.4777C14.7459 22.4777 12.5173 20.2491 12.5173 17.5C12.5173 14.7508 14.7459 12.5222 17.4951 12.5222C20.2443 12.5222 22.4729 14.7508 22.4729 17.5C22.4729 20.2491 20.2443 22.4777 17.4951 22.4777ZM17.4951 9.83154C13.2599 9.83154 9.82666 13.2648 9.82666 17.5C9.82666 21.7352 13.2599 25.1684 17.4951 25.1684C21.7303 25.1684 25.1635 21.7352 25.1635 17.5C25.1635 13.2648 21.7303 9.83154 17.4951 9.83154Z" fill="white"/>
<path d="M27.262 9.52878C27.262 10.5185 26.4596 11.3207 25.4699 11.3207C24.4803 11.3207 23.678 10.5185 23.678 9.52878C23.678 8.53908 24.4803 7.73682 25.4699 7.73682C26.4596 7.73682 27.262 8.53908 27.262 9.52878Z" fill="white"/>
</svg>
