<svg width="25" height="25" viewBox="0 0 25 25" fill="none" xmlns="http://www.w3.org/2000/svg">
<g clip-path="url(#clip0_21_41)">
<path d="M22.7988 6.21682C22.7528 6.15511 22.6951 6.10308 22.629 6.06369C22.5628 6.02431 22.4896 5.99834 22.4134 5.98727C22.3372 5.97621 22.2596 5.98026 22.185 5.99921C22.1104 6.01815 22.0402 6.05161 21.9785 6.09768L12.5274 13.1524C12.4936 13.1777 12.4524 13.1914 12.4102 13.1914C12.3679 13.1914 12.3268 13.1777 12.293 13.1524L3.02736 6.06643C2.96619 6.01975 2.89642 5.98557 2.82204 5.96585C2.74766 5.94614 2.67013 5.94126 2.59386 5.95151C2.5176 5.96176 2.4441 5.98692 2.37757 6.02557C2.31103 6.06423 2.25276 6.11561 2.20607 6.17678C2.15939 6.23795 2.12522 6.30772 2.1055 6.3821C2.08578 6.45648 2.08091 6.53401 2.09116 6.61028C2.1014 6.68654 2.12657 6.76004 2.16522 6.82658C2.20388 6.89311 2.25525 6.95139 2.31643 6.99807L9.60158 12.5703L2.3965 18C2.33443 18.0463 2.28209 18.1044 2.24246 18.1709C2.20283 18.2374 2.1767 18.3111 2.16554 18.3877C2.15439 18.4644 2.15844 18.5424 2.17746 18.6175C2.19647 18.6926 2.23009 18.7631 2.27639 18.8252C2.32268 18.8873 2.38075 18.9396 2.44728 18.9793C2.5138 19.0189 2.58748 19.045 2.66411 19.0562C2.74073 19.0673 2.81881 19.0633 2.89387 19.0443C2.96893 19.0252 3.03951 18.9916 3.10158 18.9453L10.5684 13.3086L11.5801 14.0899C11.816 14.2704 12.1043 14.3693 12.4014 14.3714C12.6985 14.3735 12.9881 14.2788 13.2266 14.1016L14.2891 13.3086L21.8438 18.9453C21.9055 18.9914 21.9756 19.0248 22.0502 19.0437C22.1248 19.0627 22.2024 19.0667 22.2786 19.0557C22.3548 19.0446 22.428 19.0186 22.4942 18.9793C22.5603 18.9399 22.618 18.8879 22.6641 18.8262C22.7101 18.7645 22.7436 18.6944 22.7625 18.6197C22.7814 18.5451 22.7855 18.4675 22.7744 18.3914C22.7633 18.3152 22.7374 18.2419 22.698 18.1758C22.6586 18.1097 22.6066 18.0519 22.5449 18.0059L15.2676 12.5684L22.6797 7.03127C22.8026 6.93843 22.8841 6.80092 22.9064 6.64849C22.9287 6.49606 22.89 6.34098 22.7988 6.21682Z" fill="#323232"/>
<path d="M22.0703 3.71094H2.92969C2.15269 3.71094 1.40751 4.0196 0.858086 4.56902C0.308663 5.11845 0 5.86362 0 6.64062L0 18.3594C0 19.1364 0.308663 19.8816 0.858086 20.431C1.40751 20.9804 2.15269 21.2891 2.92969 21.2891H22.0703C22.8473 21.2891 23.5925 20.9804 24.1419 20.431C24.6913 19.8816 25 19.1364 25 18.3594V6.64062C25 5.86362 24.6913 5.11845 24.1419 4.56902C23.5925 4.0196 22.8473 3.71094 22.0703 3.71094ZM23.8281 18.3594C23.8281 18.8256 23.6429 19.2727 23.3133 19.6023C22.9836 19.932 22.5365 20.1172 22.0703 20.1172H2.92969C2.46349 20.1172 2.01638 19.932 1.68673 19.6023C1.35707 19.2727 1.17188 18.8256 1.17188 18.3594V6.64062C1.17188 6.17442 1.35707 5.72732 1.68673 5.39766C2.01638 5.06801 2.46349 4.88281 2.92969 4.88281H22.0703C22.5365 4.88281 22.9836 5.06801 23.3133 5.39766C23.6429 5.72732 23.8281 6.17442 23.8281 6.64062V18.3594Z" fill="#323232" stroke="#323232" stroke-width="0.5"/>
</g>
<defs>
<clipPath id="clip0_21_41">
<rect width="25" height="25" fill="white"/>
</clipPath>
</defs>
</svg>
