<svg width="16" height="16" viewBox="0 0 16 16" fill="none" xmlns="http://www.w3.org/2000/svg">
<path d="M9.91049 4.42629C11.6353 4.42629 13.0335 3.9331 13.0335 3.32472C13.0335 2.71634 11.6353 2.22314 9.91049 2.22314C8.1857 2.22314 6.78748 2.71634 6.78748 3.32472C6.78748 3.9331 8.1857 4.42629 9.91049 4.42629Z" stroke="white" stroke-width="0.6" stroke-miterlimit="10" stroke-linecap="round" stroke-linejoin="round"/>
<path d="M6.78748 3.54492C6.78748 3.74585 6.78748 4.66588 6.78748 4.86681C6.78748 5.4751 8.18525 5.96838 9.91049 5.96838C11.6357 5.96838 13.0335 5.4751 13.0335 4.86681C13.0335 4.66588 13.0335 3.74585 13.0335 3.54492" stroke="white" stroke-width="0.6" stroke-miterlimit="10" stroke-linecap="round" stroke-linejoin="round"/>
<path d="M8.47168 7.38727C8.90221 7.46614 9.39163 7.51086 9.9105 7.51086C11.6357 7.51086 13.0335 7.01758 13.0335 6.40929C13.0335 6.20836 13.0335 5.28833 13.0335 5.0874" stroke="white" stroke-width="0.6" stroke-miterlimit="10" stroke-linecap="round" stroke-linejoin="round"/>
<path d="M6.78748 5.0874C6.78748 5.28833 6.78748 6.02815 6.78748 6.02815" stroke="white" stroke-width="0.6" stroke-miterlimit="10" stroke-linecap="round" stroke-linejoin="round"/>
<path d="M8.57764 8.94777C8.98184 9.01518 9.43357 9.05286 9.9105 9.05286C11.6357 9.05286 13.0335 8.55979 13.0335 7.95128C13.0335 7.75036 13.0335 6.83032 13.0335 6.62939" stroke="white" stroke-width="0.6" stroke-miterlimit="10" stroke-linecap="round" stroke-linejoin="round"/>
<path d="M8.56042 10.4874C8.96887 10.5566 9.42684 10.5953 9.91046 10.5953C11.6357 10.5953 13.0335 10.1023 13.0335 9.49376C13.0335 9.29284 13.0335 8.3728 13.0335 8.17188" stroke="white" stroke-width="0.6" stroke-miterlimit="10" stroke-linecap="round" stroke-linejoin="round"/>
<path d="M5.44907 8.17141C7.17386 8.17141 8.57208 7.67822 8.57208 7.06984C8.57208 6.46145 7.17386 5.96826 5.44907 5.96826C3.72427 5.96826 2.32605 6.46145 2.32605 7.06984C2.32605 7.67822 3.72427 8.17141 5.44907 8.17141Z" stroke="white" stroke-width="0.6" stroke-miterlimit="10" stroke-linecap="round" stroke-linejoin="round"/>
<path d="M2.32605 7.29053C2.32605 7.49145 2.32605 8.41149 2.32605 8.61242C2.32605 9.22092 3.72382 9.71399 5.44907 9.71399C7.17431 9.71399 8.57208 9.22092 8.57208 8.61242C8.57208 8.41149 8.57208 7.49145 8.57208 7.29053" stroke="white" stroke-width="0.6" stroke-miterlimit="10" stroke-linecap="round" stroke-linejoin="round"/>
<path d="M2.32605 8.83252C2.32605 9.03345 2.32605 9.95348 2.32605 10.1544C2.32605 10.7629 3.72382 11.256 5.44907 11.256C7.17431 11.256 8.57208 10.7629 8.57208 10.1544C8.57208 9.95348 8.57208 9.03345 8.57208 8.83252" stroke="white" stroke-width="0.6" stroke-miterlimit="10" stroke-linecap="round" stroke-linejoin="round"/>
<path d="M2.32605 10.375C2.32605 10.5759 2.32605 11.496 2.32605 11.6969C2.32605 12.3054 3.72382 12.7985 5.44907 12.7985C7.17431 12.7985 8.57208 12.3054 8.57208 11.6969C8.57208 11.496 8.57208 10.5759 8.57208 10.375" stroke="white" stroke-width="0.6" stroke-miterlimit="10" stroke-linecap="round" stroke-linejoin="round"/>
</svg>
