<svg width="13" height="13" viewBox="0 0 13 13" fill="none" xmlns="http://www.w3.org/2000/svg">
<g clip-path="url(#clip0_21_166)">
<path d="M6.09919 11.6445C4.97113 11.6445 3.86841 11.3141 2.93046 10.6952C1.99252 10.0762 1.26148 9.19645 0.82979 8.16714C0.398101 7.13784 0.285152 6.00522 0.505225 4.91251C0.725298 3.81981 1.26851 2.8161 2.06617 2.0283C2.86382 1.24051 3.8801 0.70401 4.98648 0.486658C6.09286 0.269306 7.23966 0.380859 8.28185 0.807211C9.32404 1.23356 10.2148 1.95556 10.8415 2.88191C11.4682 3.80826 11.8028 4.89736 11.8028 6.01147C11.8028 7.50544 11.2018 8.93823 10.1322 9.99463C9.06259 11.051 7.61187 11.6445 6.09919 11.6445ZM6.09919 1.12949C5.12154 1.12949 4.16585 1.41582 3.35296 1.95225C2.54007 2.48869 1.90651 3.25115 1.53238 4.14322C1.15825 5.03528 1.06036 6.01688 1.25109 6.96389C1.44182 7.9109 1.9126 8.78079 2.6039 9.46354C3.29521 10.1463 4.17598 10.6113 5.13484 10.7996C6.09371 10.988 7.0876 10.8913 7.99083 10.5218C8.89406 10.1523 9.66606 9.52658 10.2092 8.72375C10.7524 7.92091 11.0423 6.97703 11.0423 6.01147C11.0423 4.71669 10.5215 3.47494 9.59448 2.55939C8.66747 1.64384 7.41018 1.12949 6.09919 1.12949Z" fill="white"/>
<path d="M7.71169 8.13715L5.82951 6.27825C5.79427 6.24316 5.76639 6.20154 5.74747 6.15579C5.72855 6.11003 5.71896 6.06104 5.71924 6.01162V3.00732H6.47972V5.85765L8.25162 7.60389L7.71169 8.13715Z" fill="white"/>
</g>
<defs>
<clipPath id="clip0_21_166">
<rect width="12.1676" height="12.0172" fill="white" transform="translate(0.015625 0.00292969)"/>
</clipPath>
</defs>
</svg>
