<svg width="35" height="35" viewBox="0 0 35 35" fill="none" xmlns="http://www.w3.org/2000/svg">
<path d="M31.5984 24.0625C30.304 22.0248 28.7891 20.1358 27.0812 18.4297C27.0502 18.3909 27.0333 18.3427 27.0333 18.293C27.0333 18.2433 27.0502 18.1951 27.0812 18.1563C28.5509 16.1503 29.8497 14.0247 30.9641 11.8016C31.1252 11.4835 31.2019 11.1292 31.1865 10.773C31.1712 10.4167 31.0645 10.0703 30.8766 9.76722C30.7052 9.45916 30.4546 9.20246 30.1508 9.02364C29.847 8.84481 29.501 8.75036 29.1484 8.75003H25.8672C25.4508 8.75811 25.0454 8.88488 24.6986 9.11545C24.3517 9.34601 24.078 9.67078 23.9094 10.0516C22.9563 12.1594 21.8141 14.1765 20.4969 16.0782V10.7188C20.4983 10.4598 20.4484 10.2032 20.35 9.96366C20.2515 9.72415 20.1066 9.50654 19.9235 9.32343C19.7404 9.14033 19.5227 8.99536 19.2832 8.89694C19.0437 8.79851 18.7871 8.74858 18.5281 8.75003H13.7375C13.4586 8.75437 13.1862 8.83479 12.9497 8.98263C12.7132 9.13047 12.5215 9.3401 12.3954 9.58889C12.2693 9.83769 12.2136 10.1162 12.2342 10.3944C12.2549 10.6725 12.3511 10.9397 12.5125 11.1672L12.95 11.7797C13.1847 12.1167 13.3106 12.5175 13.3109 12.9282V17.1282C11.8671 14.9922 10.7192 12.6706 9.89842 10.2266C9.75042 9.79592 9.4717 9.42218 9.10113 9.15749C8.73056 8.8928 8.28663 8.75036 7.83124 8.75003H5.15155C4.86683 8.75344 4.58654 8.82105 4.33159 8.94785C4.07664 9.07464 3.85359 9.25734 3.67906 9.48233C3.50454 9.70732 3.38305 9.96879 3.32363 10.2473C3.26422 10.5257 3.26842 10.814 3.33592 11.0907C4.81248 17.3578 7.9078 22.5532 11.8344 25.3094C12.0697 25.4766 12.3616 25.5439 12.6463 25.4968C12.9311 25.4497 13.1857 25.2919 13.3547 25.0578C13.4392 24.9409 13.4997 24.8085 13.5328 24.6681C13.5659 24.5277 13.5709 24.3822 13.5475 24.2399C13.5241 24.0976 13.4728 23.9613 13.3965 23.8389C13.3203 23.7164 13.2205 23.6103 13.1031 23.5266C9.66874 21.1203 6.93436 16.5375 5.5453 10.9375H7.84217C8.84868 13.9955 10.3648 16.8614 12.3265 19.4141C12.5533 19.7038 12.8655 19.9147 13.219 20.0168C13.5724 20.1189 13.949 20.107 14.2953 19.9828C14.6506 19.859 14.958 19.6265 15.1739 19.3183C15.3898 19.0102 15.5033 18.6419 15.4984 18.2657V12.9282C15.5008 12.2329 15.3277 11.5482 14.9953 10.9375H18.2765V16.8766C18.2726 17.3016 18.4087 17.716 18.6637 18.056C18.9186 18.396 19.2784 18.6426 19.6875 18.7578C20.0844 18.8899 20.5137 18.8876 20.9091 18.7512C21.3045 18.6147 21.644 18.3519 21.875 18.0032C23.4285 15.7868 24.755 13.4196 25.8344 10.9375H28.8969C27.8544 12.9873 26.6511 14.9513 25.2984 16.811C24.9573 17.2673 24.7917 17.831 24.8319 18.3993C24.8721 18.9676 25.1153 19.5025 25.5172 19.9063C27.1124 21.5138 28.5483 23.272 29.8047 25.1563H26.1406C25.0103 23.2852 23.4924 21.6778 21.6891 20.4422C21.4185 20.244 21.0978 20.1256 20.7633 20.1004C20.4288 20.0753 20.094 20.1445 19.7969 20.3C19.4913 20.4564 19.2354 20.6947 19.0576 20.9884C18.8799 21.282 18.7875 21.6193 18.7906 21.9625V24.5657C18.7966 24.7176 18.7426 24.8658 18.6403 24.9784C18.538 25.0909 18.3956 25.1587 18.2437 25.1672H17.3031C17.013 25.1672 16.7348 25.2825 16.5297 25.4876C16.3246 25.6927 16.2094 25.9709 16.2094 26.261C16.2094 26.5511 16.3246 26.8292 16.5297 27.0344C16.7348 27.2395 17.013 27.3547 17.3031 27.3547H18.2437C18.6066 27.3519 18.9654 27.2774 19.2994 27.1355C19.6334 26.9937 19.9362 26.7873 20.1902 26.5281C20.4443 26.269 20.6447 25.9622 20.7799 25.6255C20.9151 25.2887 20.9824 24.9285 20.9781 24.5657V22.6297C22.2938 23.6194 23.4077 24.852 24.2594 26.261C24.4474 26.5868 24.7163 26.8587 25.0401 27.0503C25.3639 27.2419 25.7316 27.3468 26.1078 27.3547H29.8047C30.1827 27.3557 30.554 27.2545 30.8793 27.062C31.2046 26.8695 31.472 26.5928 31.6531 26.261C31.8389 25.9223 31.9317 25.5405 31.9221 25.1544C31.9125 24.7682 31.8008 24.3915 31.5984 24.0625Z" fill="white"/>
</svg>
