<svg width="22" height="23" viewBox="0 0 22 23" fill="none" xmlns="http://www.w3.org/2000/svg">
<path d="M21.7438 11.1785C21.7395 13.0939 21.3384 14.7838 20.5275 16.3542C19.7636 17.8362 18.7095 19.0704 17.3823 20.0436C16.2173 20.8974 14.9413 21.4813 13.5458 21.7821C12.0009 22.1139 10.456 22.0785 8.92397 21.6981C8.11313 21.4946 7.33643 21.1849 6.60667 20.7735C6.48291 20.7027 6.37622 20.6983 6.24393 20.7425C4.63505 21.2778 3.02617 21.8087 1.4173 22.3395C1.23379 22.4014 1.05455 22.4589 0.871047 22.5297C0.743019 22.5784 0.734484 22.5297 0.768625 22.4191C0.956398 21.8485 1.1399 21.2778 1.32768 20.7027C1.72883 19.4597 2.12998 18.2166 2.53967 16.978C2.59515 16.8143 2.51406 16.7081 2.45005 16.5931C1.94648 15.6862 1.588 14.7219 1.36609 13.7044C0.883849 11.5103 1.05455 9.36033 1.86539 7.27677C2.33483 6.07352 3.00484 4.99413 3.86262 4.03861C4.95512 2.81767 6.2482 1.91966 7.74185 1.31803C9.13735 0.75622 10.5798 0.539458 12.0649 0.632356C14.1005 0.760644 15.9527 1.45959 17.5786 2.73362C19.6825 4.37924 21.0055 6.54243 21.5347 9.22762C21.6755 9.9133 21.7267 10.6078 21.7438 11.1785ZM11.3522 2.42396C10.9553 2.40626 10.4902 2.45492 10.025 2.5257C9.8415 2.55225 9.66226 2.59206 9.48302 2.64072C6.7091 3.37063 4.71614 5.08703 3.54255 7.78992C2.86401 9.35149 2.6805 11.0015 2.93656 12.6914C3.13713 14.0273 3.6151 15.2571 4.36193 16.3675C4.44301 16.4914 4.45581 16.5975 4.40887 16.7347C4.09307 17.6946 3.7858 18.659 3.47427 19.6233C3.4572 19.6764 3.40599 19.7384 3.45293 19.787C3.49988 19.8401 3.55962 19.7826 3.61083 19.7649C4.54543 19.4552 5.48003 19.15 6.4061 18.8271C6.61948 18.7519 6.77311 18.7873 6.95661 18.9023C9.052 20.2073 11.2925 20.5523 13.6524 19.902C15.4448 19.411 16.9214 18.398 18.0907 16.9028C19.2216 15.4562 19.8532 13.8017 19.9813 11.9526C20.0794 10.5326 19.866 9.15242 19.3198 7.83415C18.6327 6.17526 17.5616 4.84815 16.1148 3.86166C14.698 2.8973 13.1318 2.40184 11.3522 2.42396Z" fill="#282828"/>
<path d="M6.25659 8.74124C6.27366 7.7459 6.64921 6.92752 7.38323 6.2905C7.59234 6.10913 7.84413 6.03393 8.12152 6.08259C8.24102 6.10028 8.36478 6.11798 8.48 6.10471C8.7702 6.08259 8.93663 6.25069 9.02625 6.49842C9.29938 7.2416 9.56396 7.98921 9.83282 8.73239C9.88403 8.87395 9.87123 9.00224 9.80722 9.13495C9.64078 9.49327 9.37619 9.77196 9.1116 10.0507C8.88115 10.294 8.86835 10.3736 9.02625 10.67C9.79015 12.1033 10.8442 13.218 12.3038 13.8949C12.3763 13.9258 12.4403 13.9789 12.5086 14.0099C12.6921 14.1028 12.8585 14.0939 13.0122 13.9303C13.3109 13.6162 13.5883 13.28 13.8571 12.9349C14.0663 12.6651 14.1644 12.6253 14.4589 12.7624C15.1758 13.1074 15.8586 13.51 16.5543 13.8993C16.7847 14.0276 16.8103 14.2045 16.7762 14.5275C16.6353 15.8413 15.6666 16.4385 14.5613 16.6287C14.19 16.6906 13.8401 16.6553 13.4901 16.5402C12.4659 16.204 11.4588 15.8148 10.554 15.2043C9.70906 14.6336 8.98357 13.9214 8.34771 13.1119C7.72891 12.32 7.17839 11.4839 6.72176 10.5771C6.4657 10.0595 6.25659 9.25439 6.25659 8.74124Z" fill="#282828"/>
</svg>
