<svg width="268" height="59" viewBox="0 0 268 59" fill="none" xmlns="http://www.w3.org/2000/svg">
<path d="M18.32 24.88L18.87 22.68C19.0167 22.1667 19.1267 21.47 19.2 20.59C19.42 19.8567 19.6033 19.05 19.75 18.17C20.0433 15.53 20.0433 13.3667 19.75 11.68C19.53 10.0667 19.2367 8.78333 18.87 7.83C18.3567 6.65666 17.8067 5.85 17.22 5.41C16.12 4.82333 15.2033 5.52 14.47 7.5C13.7367 9.40666 13.1133 11.9367 12.6 15.09C12.2333 18.5367 11.94 22.24 11.72 26.2C11.5 30.38 11.4267 34.34 11.5 38.08C11.94 37.7133 12.4167 37.1633 12.93 36.43C13.5167 35.8433 14.0667 35.11 14.58 34.23C16.1933 31.37 17.44 28.2533 18.32 24.88ZM19.86 51.94C20.1533 52.2333 20.5933 52.3067 21.18 52.16C21.5467 52.0133 21.8767 51.6833 22.17 51.17C22.4633 50.6567 22.7933 50.0333 23.16 49.3C22.4267 48.7867 21.6933 48.3833 20.96 48.09C20.2267 47.7967 19.7133 47.8333 19.42 48.2C19.2 48.4933 19.09 48.8967 19.09 49.41C19.0167 49.9233 19.0533 50.4 19.2 50.84C19.3467 51.3533 19.5667 51.72 19.86 51.94ZM32.95 39.18C33.0967 41.82 32.7667 44.57 31.96 47.43C31.5933 48.8967 31.2267 50.07 30.86 50.95C31.3733 50.95 31.85 50.6567 32.29 50.07C33.0233 49.19 33.7567 48.2 34.49 47.1C35.15 46.0733 35.7733 45.0467 36.36 44.02C36.8733 43.0667 37.35 42.15 37.79 41.27C38.1567 40.4633 38.45 39.84 38.67 39.4C38.8167 39.0333 39.0367 38.9233 39.33 39.07H39.55C39.9167 39.2167 40.1733 39.4367 40.32 39.73C40.3933 40.0233 40.3567 40.3533 40.21 40.72C38.23 45.1933 36.3233 48.7133 34.49 51.28C33.9033 52.2333 33.28 52.8567 32.62 53.15C31.96 53.5167 31.3 53.7367 30.64 53.81C29.98 53.81 29.4667 53.7367 29.1 53.59L28.44 54.36L27.67 55.13C26.8633 55.79 26.02 56.3033 25.14 56.67C24.3333 57.0367 23.4533 57.2567 22.5 57.33C21.4733 57.4033 20.41 57.1467 19.31 56.56C18.7233 56.2667 18.2467 55.9 17.88 55.46C17.5133 55.0933 17.1833 54.58 16.89 53.92C16.5967 53.3333 16.4133 52.6367 16.34 51.83C16.2667 51.0967 16.3033 50.29 16.45 49.41C16.5233 48.53 16.89 47.6133 17.55 46.66C18.3567 45.4133 19.31 44.9367 20.41 45.23C21.51 45.5233 22.6833 46.11 23.93 46.99L24.37 45.12C24.4433 44.5333 24.5533 44.02 24.7 43.58C25.0667 41.6733 25.25 40.1333 25.25 38.96C25.25 38.52 25.2133 38.08 25.14 37.64C24.9933 35.9533 24.7367 34.67 24.37 33.79C23.8567 32.69 23.2333 32.03 22.5 31.81C21.3267 31.8833 20.3 32.4333 19.42 33.46C18.54 34.4133 17.8067 35.4767 17.22 36.65C16.7067 37.8233 16.3033 38.9967 16.01 40.17C15.7167 41.27 15.5333 42.0033 15.46 42.37C14.4333 45.67 14.1033 50.18 14.47 55.9C14.47 56.1933 14.3233 56.4867 14.03 56.78C13.7367 57 13.37 57.11 12.93 57.11C11.4633 57.0367 10.3267 56.7067 9.52 56.12C8.71333 55.46 8.12667 54.8367 7.76 54.25C7.24667 53.4433 6.91667 52.5633 6.77 51.61C6.33 48.8233 6 47.54 5.78 47.76C5.56 47.98 5.48667 46.6967 5.56 43.91C3.87333 44.2033 2.29667 44.2033 0.83 43.91C0.39 43.8367 0.17 43.3967 0.17 42.59C0.316666 41.5633 0.61 41.1233 1.05 41.27C1.63667 41.3433 2.22333 41.4167 2.81 41.49C3.39667 41.4167 3.94667 41.3433 4.46 41.27C4.9 41.1967 5.30333 41.16 5.67 41.16C5.67 39.62 5.70667 38.3367 5.78 37.31V31.81C5.85333 28.51 6.03667 25.3567 6.33 22.35C6.62333 19.1233 7.13667 16.0433 7.87 13.11C8.53 10.3233 9.44667 7.83 10.62 5.63C11.28 4.16333 12.0133 3.06333 12.82 2.33C13.5533 1.74333 14.25 1.30333 14.91 1.01C15.57 0.86333 16.1567 0.826662 16.67 0.899994C17.1833 0.973331 17.55 1.12 17.77 1.34C19.3833 1.92666 20.6667 3.43 21.62 5.85C22.4267 8.19666 22.83 10.6533 22.83 13.22C22.7567 15.86 22.4633 18.5367 21.95 21.25C21.51 23.8167 20.8133 26.2367 19.86 28.51C19.4933 29.39 19.1267 30.27 18.76 31.15C19.2 30.6367 19.64 30.2333 20.08 29.94C21.4733 28.9133 23.2333 28.51 25.36 28.73C27.4133 28.95 29.0633 29.9033 30.31 31.59C31.5567 33.2767 32.4 35.2933 32.84 37.64C32.9133 38.1533 32.95 38.6667 32.95 39.18ZM40.8872 49.85C41.0339 48.53 40.9605 47.5767 40.6672 46.99C40.4472 46.4767 40.1539 46.1467 39.7872 46C39.6405 47.4667 39.5672 48.64 39.5672 49.52C39.6405 50.4733 39.8239 50.9867 40.1172 51.06C40.4105 51.06 40.6305 50.8767 40.7772 50.51L40.8872 49.85ZM51.4472 22.35C53.9405 22.35 55.6639 23.0833 56.6172 24.55C57.6439 25.9433 58.3039 27.41 58.5972 28.95C59.4772 27.19 60.5772 25.65 61.8972 24.33C63.2905 23.01 65.0139 22.35 67.0672 22.35C69.2672 22.35 70.8805 22.9367 71.9072 24.11C72.9339 25.2833 73.6305 26.5667 73.9972 27.96C74.3639 29.6467 74.4739 31.5167 74.3272 33.57C74.1805 35.6233 74.0339 37.6767 73.8872 39.73C73.7405 41.7833 73.6305 43.69 73.5572 45.45C73.5572 47.1367 73.5939 48.53 73.6672 49.63C73.7405 50.6567 73.8872 51.2067 74.1072 51.28C74.9139 50.4733 75.6839 49.4833 76.4172 48.31C77.2239 47.1367 77.9572 46 78.6172 44.9C79.2772 43.7267 79.8272 42.6633 80.2672 41.71C80.7072 40.7567 81.0372 40.06 81.2572 39.62C81.4039 39.2533 81.6605 39.1433 82.0272 39.29H82.2472C82.6139 39.4367 82.8339 39.6567 82.9072 39.95C83.0539 40.2433 83.0539 40.5733 82.9072 40.94C81.1472 44.8267 79.4972 47.9433 77.9572 50.29C76.4905 52.5633 75.0972 54.25 73.7772 55.35C72.5305 56.45 71.3205 57.0367 70.1472 57.11C68.9739 57.1833 67.8372 56.89 66.7372 56.23C65.4905 55.4967 64.6105 54.1767 64.0972 52.27C63.5839 50.29 63.2539 48.1633 63.1072 45.89C62.9605 43.5433 62.9239 41.2333 62.9972 38.96C63.1439 36.6133 63.2905 34.7067 63.4372 33.24C63.6572 31.6267 63.6939 30.5267 63.5472 29.94C63.4005 29.28 63.1439 28.9133 62.7772 28.84C62.2639 28.7667 61.7139 29.3533 61.1272 30.6C60.6139 31.8467 60.1005 33.35 59.5872 35.11C59.1472 36.7967 58.7439 38.5933 58.3772 40.5C58.0839 42.3333 57.9005 43.8733 57.8272 45.12V45.67C57.8272 45.8167 57.8272 46.0367 57.8272 46.33C57.8272 46.6233 57.7905 46.9533 57.7172 47.32C57.7172 47.8333 57.6439 48.4567 57.4972 49.19C57.3505 49.85 57.1305 50.51 56.8372 51.17C56.6172 51.7567 56.2872 52.27 55.8472 52.71C55.4072 53.15 54.8572 53.4067 54.1972 53.48C52.6572 53.6267 51.4472 53.3333 50.5672 52.6C49.7605 51.7933 49.1372 50.9133 48.6972 49.96C48.1839 48.86 47.8905 47.6133 47.8172 46.22C47.5239 43.7267 47.4139 41.38 47.4872 39.18C47.5605 36.9067 47.6339 34.9267 47.7072 33.24C47.9272 31.6267 47.9639 30.49 47.8172 29.83C47.7439 29.39 47.6339 28.9867 47.4872 28.62C47.3405 28.18 47.1205 27.74 46.8272 27.3C46.5339 27.0067 46.2772 26.9333 46.0572 27.08C45.4705 27.3733 44.8839 28.07 44.2972 29.17C43.7839 30.27 43.2705 31.5533 42.7572 33.02C42.2439 34.56 41.7672 36.1733 41.3272 37.86C40.9605 39.62 40.6305 41.3067 40.3372 42.92C41.8772 43.36 42.9405 44.3133 43.5272 45.78C44.1872 47.32 44.4439 48.9333 44.2972 50.62C44.2239 52.3067 43.8205 53.81 43.0872 55.13C42.3539 56.45 41.3639 57.11 40.1172 57.11C39.0905 57.11 38.3205 56.67 37.8072 55.79C37.3672 54.9833 37.0739 53.9933 36.9272 52.82C36.7805 51.72 36.7072 50.5833 36.7072 49.41C36.7805 48.2367 36.8539 47.32 36.9272 46.66C36.3405 47.32 35.9005 48.1633 35.6072 49.19C35.3139 50.29 35.0939 51.1333 34.9472 51.72C34.8005 52.2333 34.5439 52.3067 34.1772 51.94L34.0672 51.72C33.3339 50.5467 33.1505 49.2267 33.5172 47.76C33.8105 46.8067 34.2505 45.8533 34.8372 44.9C35.4239 43.9467 36.3039 43.2867 37.4772 42.92C38.2839 37.86 39.2372 33.9367 40.3372 31.15C41.4372 28.4367 42.5005 26.4567 43.5272 25.21C44.7739 23.67 46.0572 22.79 47.3772 22.57C48.4772 22.35 49.8339 22.2767 51.4472 22.35ZM109.604 39.29C109.97 39.4367 110.19 39.6567 110.264 39.95C110.41 40.2433 110.41 40.5733 110.264 40.94C109.457 42.7 108.687 44.3133 107.954 45.78C107.22 47.1733 106.524 48.42 105.864 49.52C104.617 51.4267 103.187 53.04 101.574 54.36C100.18 55.46 98.4937 56.34 96.5137 57C94.5337 57.7333 92.2603 57.6967 89.6937 56.89C88.3003 56.45 86.8703 55.57 85.4037 54.25C84.0103 52.93 82.837 51.28 81.8837 49.3C80.9303 47.32 80.307 45.0833 80.0137 42.59C79.7203 40.0233 80.0137 37.2733 80.8937 34.34C81.7003 31.48 82.727 29.28 83.9737 27.74C85.2937 26.1267 86.577 24.9167 87.8237 24.11C89.217 23.23 90.6837 22.7167 92.2237 22.57C94.057 22.4233 95.597 22.6433 96.8437 23.23C98.0903 23.7433 99.117 24.4033 99.9237 25.21C100.584 25.9433 101.097 26.7133 101.464 27.52C101.83 28.2533 102.014 29.0967 102.014 30.05C102.087 31.0033 101.867 32.1033 101.354 33.35C100.767 34.67 99.9237 35.77 98.8237 36.65C97.8703 37.4567 96.587 38.1167 94.9737 38.63C93.3603 39.07 91.307 39.1067 88.8137 38.74C88.8137 38.96 88.777 39.18 88.7037 39.4C88.7037 39.62 88.7037 39.84 88.7037 40.06C88.557 42.48 88.6303 44.68 88.9237 46.66C89.217 48.3467 89.767 49.96 90.5737 51.5C91.3803 52.9667 92.6637 53.7733 94.4237 53.92C95.6703 54.0667 96.8437 53.8467 97.9437 53.26C99.117 52.6733 100.144 51.9767 101.024 51.17C102.05 50.29 103.04 49.2633 103.994 48.09C105.094 46.4033 106.047 44.7533 106.854 43.14C107.734 41.4533 108.32 40.28 108.614 39.62C108.76 39.2533 109.017 39.1433 109.384 39.29H109.604ZM99.0437 27.08C98.5303 26.5667 97.8337 26.42 96.9537 26.64C96.0737 26.86 95.157 27.41 94.2037 28.29C93.2503 29.0967 92.3337 30.1967 91.4537 31.59C90.5737 32.91 89.877 34.45 89.3637 36.21C90.0237 36.3567 90.757 36.43 91.5637 36.43C92.3703 36.43 93.177 36.32 93.9837 36.1C94.8637 35.88 95.6703 35.5867 96.4037 35.22C97.2103 34.78 97.907 34.1567 98.4937 33.35C99.1537 32.3967 99.557 31.5533 99.7037 30.82C99.9237 30.0133 99.9603 29.3167 99.8137 28.73C99.667 28.07 99.4103 27.52 99.0437 27.08ZM126.654 34.89C125.774 34.89 125.004 34.67 124.344 34.23C123.904 33.9367 123.83 33.57 124.124 33.13C124.784 32.25 125.187 31.48 125.334 30.82C125.554 30.16 125.664 29.61 125.664 29.17C125.664 28.6567 125.554 28.18 125.334 27.74C124.6 27.3 123.757 27.2633 122.804 27.63C121.85 27.9233 120.897 28.5833 119.944 29.61C119.064 30.6367 118.257 32.03 117.524 33.79C116.864 35.55 116.424 37.64 116.204 40.06C116.13 42.48 116.24 44.68 116.534 46.66C116.827 48.3467 117.377 49.96 118.184 51.5C118.99 52.9667 120.237 53.7733 121.924 53.92C123.17 54.0667 124.344 53.8467 125.444 53.26C126.617 52.6733 127.644 51.9767 128.524 51.17C129.55 50.29 130.54 49.2633 131.494 48.09C132.667 46.4033 133.657 44.7533 134.464 43.14C135.27 41.4533 135.82 40.28 136.114 39.62C136.407 39.3267 136.664 39.2167 136.884 39.29H137.104C137.47 39.4367 137.69 39.6567 137.764 39.95C137.91 40.2433 137.91 40.5733 137.764 40.94C136.957 42.7 136.187 44.3133 135.454 45.78C134.72 47.1733 134.024 48.42 133.364 49.52C132.19 51.4267 130.797 53.04 129.184 54.36C127.79 55.46 126.067 56.34 124.014 57C122.034 57.7333 119.76 57.6967 117.194 56.89C115.8 56.45 114.407 55.57 113.014 54.25C111.62 52.93 110.447 51.28 109.494 49.3C108.54 47.32 107.917 45.0833 107.624 42.59C107.33 40.0233 107.587 37.2733 108.394 34.34C109.2 31.48 110.227 29.28 111.474 27.74C112.794 26.1267 114.077 24.9167 115.324 24.11C116.717 23.23 118.184 22.7167 119.724 22.57C121.63 22.4233 123.17 22.6433 124.344 23.23C125.59 23.7433 126.617 24.4033 127.424 25.21C128.084 25.9433 128.597 26.7133 128.964 27.52C129.33 28.2533 129.514 29.0967 129.514 30.05C129.587 31.0033 129.367 32.1033 128.854 33.35C128.34 34.3767 127.607 34.89 126.654 34.89ZM160.094 47.32C160.094 47.8333 160.02 48.4567 159.874 49.19C159.727 49.85 159.507 50.51 159.214 51.17C158.994 51.7567 158.664 52.27 158.224 52.71C157.784 53.15 157.234 53.4067 156.574 53.48C155.034 53.6267 153.824 53.3333 152.944 52.6C152.137 51.7933 151.514 50.9133 151.074 49.96C150.56 48.86 150.267 47.6133 150.194 46.22C149.9 43.7267 149.79 41.38 149.864 39.18C149.937 36.9067 150.01 34.9267 150.084 33.24C150.304 31.6267 150.34 30.5267 150.194 29.94C150.047 29.28 149.79 28.9133 149.424 28.84C148.91 28.7667 148.397 29.3167 147.884 30.49C147.37 31.6633 146.857 33.0933 146.344 34.78C145.904 36.4667 145.5 38.2267 145.134 40.06C144.84 41.8933 144.657 43.47 144.584 44.79C144.437 47.0633 144.327 49.2633 144.254 51.39C144.254 53.4433 144.254 55.2033 144.254 56.67C144.254 57.6233 143.777 58.1 142.824 58.1C139.964 57.88 137.984 56.4133 136.884 53.7C135.784 50.9867 135.197 47.43 135.124 43.03C134.977 40.5367 134.94 38.1167 135.014 35.77C135.014 33.35 135.087 31.4067 135.234 29.94C135.454 28.0333 136.26 26.4567 137.654 25.21C138.46 24.55 139.377 23.9267 140.404 23.34C141.504 22.68 142.97 22.3133 144.804 22.24C145.39 22.24 145.684 22.5333 145.684 23.12C145.61 23.9267 145.5 25.7967 145.354 28.73C146.234 27.0433 147.334 25.5767 148.654 24.33C150.047 23.01 151.77 22.35 153.824 22.35C156.317 22.35 158.04 23.0833 158.994 24.55C160.02 25.9433 160.68 27.41 160.974 28.95C161.854 27.19 162.954 25.65 164.274 24.33C165.667 23.01 167.39 22.35 169.444 22.35C171.644 22.35 173.257 22.9367 174.284 24.11C175.31 25.2833 176.007 26.5667 176.374 27.96C176.74 29.6467 176.85 31.5167 176.704 33.57C176.557 35.6233 176.41 37.6767 176.264 39.73C176.117 41.7833 176.007 43.69 175.934 45.45C175.934 47.1367 175.97 48.53 176.044 49.63C176.117 50.6567 176.264 51.2067 176.484 51.28C177.29 50.4733 178.06 49.4833 178.794 48.31C179.6 47.1367 180.334 46 180.994 44.9C181.654 43.7267 182.204 42.6633 182.644 41.71C183.084 40.7567 183.414 40.06 183.634 39.62C183.78 39.2533 184.037 39.1433 184.404 39.29H184.624C184.99 39.4367 185.21 39.6567 185.284 39.95C185.43 40.2433 185.43 40.5733 185.284 40.94C183.524 44.8267 181.874 47.9433 180.334 50.29C178.867 52.5633 177.474 54.25 176.154 55.35C174.907 56.45 173.697 57.0367 172.524 57.11C171.35 57.1833 170.214 56.89 169.114 56.23C167.867 55.4967 166.987 54.1767 166.474 52.27C165.96 50.29 165.63 48.1633 165.484 45.89C165.337 43.5433 165.3 41.2333 165.374 38.96C165.52 36.6133 165.667 34.7067 165.814 33.24C166.034 31.6267 166.07 30.5267 165.924 29.94C165.777 29.28 165.52 28.9133 165.154 28.84C164.64 28.7667 164.09 29.3533 163.504 30.6C162.99 31.8467 162.477 33.35 161.964 35.11C161.524 36.7967 161.12 38.5933 160.754 40.5C160.46 42.3333 160.277 43.8733 160.204 45.12V45.67C160.204 45.8167 160.204 46.0367 160.204 46.33C160.204 46.6233 160.167 46.9533 160.094 47.32ZM212.084 39.29C212.451 39.4367 212.671 39.6567 212.744 39.95C212.891 40.2433 212.891 40.5733 212.744 40.94C211.937 42.7 211.167 44.3133 210.434 45.78C209.701 47.1733 209.004 48.42 208.344 49.52C207.097 51.4267 205.667 53.04 204.054 54.36C202.661 55.46 200.974 56.34 198.994 57C197.014 57.7333 194.741 57.6967 192.174 56.89C190.781 56.45 189.351 55.57 187.884 54.25C186.491 52.93 185.317 51.28 184.364 49.3C183.411 47.32 182.787 45.0833 182.494 42.59C182.201 40.0233 182.494 37.2733 183.374 34.34C184.181 31.48 185.207 29.28 186.454 27.74C187.774 26.1267 189.057 24.9167 190.304 24.11C191.697 23.23 193.164 22.7167 194.704 22.57C196.537 22.4233 198.077 22.6433 199.324 23.23C200.571 23.7433 201.597 24.4033 202.404 25.21C203.064 25.9433 203.577 26.7133 203.944 27.52C204.311 28.2533 204.494 29.0967 204.494 30.05C204.567 31.0033 204.347 32.1033 203.834 33.35C203.247 34.67 202.404 35.77 201.304 36.65C200.351 37.4567 199.067 38.1167 197.454 38.63C195.841 39.07 193.787 39.1067 191.294 38.74C191.294 38.96 191.257 39.18 191.184 39.4C191.184 39.62 191.184 39.84 191.184 40.06C191.037 42.48 191.111 44.68 191.404 46.66C191.697 48.3467 192.247 49.96 193.054 51.5C193.861 52.9667 195.144 53.7733 196.904 53.92C198.151 54.0667 199.324 53.8467 200.424 53.26C201.597 52.6733 202.624 51.9767 203.504 51.17C204.531 50.29 205.521 49.2633 206.474 48.09C207.574 46.4033 208.527 44.7533 209.334 43.14C210.214 41.4533 210.801 40.28 211.094 39.62C211.241 39.2533 211.497 39.1433 211.864 39.29H212.084ZM201.524 27.08C201.011 26.5667 200.314 26.42 199.434 26.64C198.554 26.86 197.637 27.41 196.684 28.29C195.731 29.0967 194.814 30.1967 193.934 31.59C193.054 32.91 192.357 34.45 191.844 36.21C192.504 36.3567 193.237 36.43 194.044 36.43C194.851 36.43 195.657 36.32 196.464 36.1C197.344 35.88 198.151 35.5867 198.884 35.22C199.691 34.78 200.387 34.1567 200.974 33.35C201.634 32.3967 202.037 31.5533 202.184 30.82C202.404 30.0133 202.441 29.3167 202.294 28.73C202.147 28.07 201.891 27.52 201.524 27.08ZM256.634 34.89C255.754 34.89 254.984 34.67 254.324 34.23C253.884 33.9367 253.811 33.57 254.104 33.13C254.764 32.25 255.167 31.48 255.314 30.82C255.534 30.16 255.644 29.61 255.644 29.17C255.644 28.6567 255.534 28.18 255.314 27.74C254.581 27.3 253.737 27.2633 252.784 27.63C251.831 27.9233 250.877 28.5833 249.924 29.61C249.044 30.6367 248.237 32.03 247.504 33.79C246.844 35.55 246.404 37.64 246.184 40.06C246.111 42.48 246.221 44.68 246.514 46.66C246.807 48.3467 247.357 49.96 248.164 51.5C248.971 52.9667 250.217 53.7733 251.904 53.92C253.151 54.0667 254.324 53.8467 255.424 53.26C256.597 52.6733 257.624 51.9767 258.504 51.17C259.531 50.29 260.521 49.2633 261.474 48.09C262.647 46.4033 263.637 44.7533 264.444 43.14C265.251 41.4533 265.801 40.28 266.094 39.62C266.387 39.3267 266.644 39.2167 266.864 39.29H267.084C267.451 39.4367 267.671 39.6567 267.744 39.95C267.891 40.2433 267.891 40.5733 267.744 40.94C266.937 42.7 266.167 44.3133 265.434 45.78C264.701 47.1733 264.004 48.42 263.344 49.52C262.171 51.4267 260.777 53.04 259.164 54.36C257.771 55.46 256.047 56.34 253.994 57C252.014 57.7333 249.741 57.6967 247.174 56.89C245.781 56.45 244.387 55.57 242.994 54.25C241.601 52.93 240.427 51.28 239.474 49.3C238.521 47.32 237.897 45.0833 237.604 42.59C237.311 40.0233 237.567 37.2733 238.374 34.34C239.181 31.48 240.207 29.28 241.454 27.74C242.774 26.1267 244.057 24.9167 245.304 24.11C246.697 23.23 248.164 22.7167 249.704 22.57C251.611 22.4233 253.151 22.6433 254.324 23.23C255.571 23.7433 256.597 24.4033 257.404 25.21C258.064 25.9433 258.577 26.7133 258.944 27.52C259.311 28.2533 259.494 29.0967 259.494 30.05C259.567 31.0033 259.347 32.1033 258.834 33.35C258.321 34.3767 257.587 34.89 256.634 34.89Z" fill="#FFC700"/>
</svg>
